<?xml version="1.0" standalone="no"?>
<!DOCTYPE svg PUBLIC "-//W3C//DTD SVG 20010904//EN"
 "http://www.w3.org/TR/2001/REC-SVG-20010904/DTD/svg10.dtd">
<svg version="1.0" xmlns="http://www.w3.org/2000/svg"
 width="2048.000000pt" height="2048.000000pt" viewBox="0 0 2048.000000 2048.000000"
 preserveAspectRatio="xMidYMid meet">
<metadata>
Created by potrace 1.14, written by Peter Selinger 2001-2017
</metadata>
<g transform="translate(0.000000,2048.000000) scale(0.100000,-0.100000)"
fill="#000000" stroke="none">
<path d="M0 10240 l0 -10240 10240 0 10240 0 0 10240 0 10240 -10240 0 -10240
0 0 -10240z m11020 10091 c549 -21 1326 -147 1826 -297 44 -13 85 -24 91 -24
6 0 51 -13 100 -29 48 -16 138 -45 198 -64 61 -20 153 -52 205 -71 52 -19 111
-40 130 -47 19 -7 63 -25 98 -41 35 -15 67 -28 73 -28 6 0 35 -11 65 -25 30
-14 60 -25 67 -25 7 0 17 -4 22 -8 6 -5 35 -19 65 -32 248 -103 714 -343 980
-505 229 -139 479 -304 565 -371 22 -17 72 -53 110 -79 39 -26 75 -53 80 -60
6 -6 57 -47 115 -91 275 -207 783 -678 1025 -949 162 -182 407 -480 508 -618
23 -31 61 -83 84 -115 54 -72 145 -205 201 -291 23 -36 48 -73 55 -81 7 -8 26
-37 42 -65 39 -66 42 -70 101 -167 28 -46 64 -108 80 -138 15 -30 31 -57 34
-60 19 -16 230 -428 306 -599 31 -69 62 -137 69 -151 8 -14 23 -50 35 -80 12
-30 28 -68 35 -85 23 -50 65 -157 86 -215 11 -30 26 -69 34 -87 8 -17 15 -40
15 -51 0 -12 3 -23 8 -25 4 -3 18 -38 31 -79 13 -40 34 -102 47 -138 40 -117
134 -430 134 -449 0 -7 11 -51 24 -99 42 -154 136 -580 136 -617 0 -11 11 -85
24 -165 14 -80 29 -188 35 -240 6 -52 20 -171 30 -265 11 -93 25 -323 31 -510
10 -284 9 -399 -4 -695 -9 -212 -24 -416 -36 -505 -11 -82 -24 -195 -30 -250
-5 -55 -18 -144 -30 -199 -11 -54 -20 -110 -20 -125 0 -41 -89 -450 -145 -671
-32 -123 -111 -390 -147 -495 -11 -33 -24 -78 -30 -100 -5 -21 -13 -44 -17
-50 -5 -5 -20 -44 -34 -85 -24 -70 -75 -207 -117 -310 -58 -143 -70 -174 -90
-217 -12 -26 -33 -72 -46 -101 -86 -189 -195 -410 -269 -545 -133 -241 -207
-371 -216 -377 -4 -3 -19 -27 -34 -55 -106 -190 -412 -620 -668 -938 -280
-347 -824 -896 -1142 -1152 -60 -49 -135 -109 -165 -135 -30 -25 -80 -64 -110
-85 -30 -22 -82 -61 -115 -87 l-60 -48 -5038 0 -5038 0 -37 29 c-20 15 -73 54
-117 86 -44 32 -84 64 -90 70 -5 6 -66 57 -135 112 -241 194 -566 502 -819
778 -81 88 -158 171 -172 185 -14 14 -62 72 -108 130 -46 58 -104 128 -127
156 -24 28 -73 91 -109 140 -35 49 -70 95 -77 103 -41 44 -366 529 -403 601
-10 19 -29 49 -41 66 -13 17 -24 34 -24 38 0 3 -12 25 -27 49 -37 58 -222 398
-260 477 -105 219 -180 382 -233 510 -10 25 -30 72 -44 105 -52 125 -78 191
-86 220 -5 17 -25 73 -43 125 -48 131 -61 171 -92 275 -16 50 -38 122 -51 160
-13 39 -30 97 -38 130 -8 33 -22 89 -31 125 -111 423 -215 1012 -235 1335 -5
72 -14 193 -21 270 -20 218 -18 853 4 1125 27 354 45 499 103 850 58 349 175
832 266 1095 11 33 24 76 28 95 4 19 19 65 33 101 15 36 27 70 27 75 0 17 117
324 185 484 50 117 151 343 170 380 7 14 34 68 59 120 26 52 50 102 56 110 5
8 46 85 92 170 46 85 87 162 93 171 5 9 25 43 43 75 45 82 114 191 255 404
121 183 196 293 205 300 4 3 32 39 62 80 299 418 804 966 1205 1309 61 52 123
108 139 124 60 60 457 365 594 457 40 27 85 59 101 72 16 13 57 41 91 63 35
22 100 63 144 92 45 29 99 62 121 74 22 12 53 31 69 43 17 11 59 38 95 58 36
20 93 52 126 70 362 204 857 434 1204 559 248 89 610 209 633 209 6 0 48 11
92 24 483 145 1292 278 1796 296 276 10 677 10 930 1z"/>
<path d="M10137 18838 c-15 -12 -17 -91 -24 -888 -4 -481 -8 -1055 -8 -1275 0
-386 1 -401 21 -440 28 -54 76 -85 131 -85 73 0 83 11 83 85 0 35 -7 112 -16
170 -12 84 -14 169 -11 432 5 349 13 440 47 531 64 171 164 266 280 266 249 0
354 -385 337 -1241 l-6 -282 30 -26 c24 -19 42 -25 79 -25 27 0 61 5 75 12
l25 11 0 447 c0 481 -9 659 -41 785 -29 116 -88 230 -149 292 -85 84 -235 152
-386 173 -86 12 -134 -1 -208 -58 -27 -20 -57 -43 -67 -51 -18 -13 -19 -4 -19
292 0 296 1 310 30 464 16 87 32 188 36 225 8 83 -3 103 -88 159 -65 41 -119
51 -151 27z"/>
<path d="M9060 18789 c-457 -43 -820 -113 -820 -157 0 -23 49 -79 85 -97 51
-26 195 -26 310 -1 44 9 116 20 160 23 67 5 83 3 94 -11 21 -25 8 -414 -23
-721 -38 -384 -47 -557 -48 -969 -1 -410 5 -483 48 -576 45 -99 115 -149 207
-150 56 0 67 16 47 64 -34 83 -62 204 -77 326 -13 111 -14 208 -10 540 7 512
31 818 97 1272 29 198 44 249 77 263 31 14 283 17 412 6 103 -8 134 -15 188
-41 51 -23 69 -28 84 -19 28 15 42 57 34 106 -11 76 -93 129 -237 153 -96 15
-410 10 -628 -11z"/>
<path d="M11790 17854 c-128 -55 -231 -240 -311 -554 -52 -205 -73 -378 -66
-545 13 -341 128 -529 360 -591 66 -18 237 -18 302 0 189 51 378 174 439 286
40 73 47 164 16 203 -16 20 -30 27 -55 27 -31 0 -41 -9 -113 -98 -142 -175
-231 -240 -364 -268 -191 -40 -319 44 -362 237 -18 84 -28 201 -17 218 15 23
74 14 151 -24 72 -35 78 -36 155 -31 183 12 369 122 478 283 73 106 92 167 92
298 0 108 -1 111 -38 181 -81 151 -302 330 -466 378 -68 20 -155 20 -201 0z
m305 -205 c59 -28 111 -87 148 -168 25 -56 31 -82 35 -166 5 -114 -15 -191
-70 -278 -135 -212 -413 -225 -521 -24 -19 36 -22 57 -21 142 0 118 19 196 74
310 43 89 104 158 165 186 54 25 134 24 190 -2z"/>
<path d="M6722 13804 c-65 -17 -101 -35 -177 -89 -149 -105 -274 -302 -331
-520 -23 -86 -27 -121 -27 -245 0 -161 17 -250 73 -368 98 -210 229 -330 800
-737 224 -160 318 -247 356 -330 62 -134 -16 -248 -197 -289 -99 -22 -242 -29
-369 -17 -219 21 -296 52 -430 175 -106 98 -170 136 -229 136 -53 0 -81 -25
-88 -77 -7 -55 33 -140 85 -181 132 -105 417 -200 664 -221 294 -25 616 64
750 207 65 69 81 105 86 195 4 72 2 82 -28 144 -39 78 -149 198 -260 283 -41
31 -208 153 -370 270 -162 117 -317 233 -344 259 -123 117 -227 283 -261 416
-34 133 -12 322 51 448 110 219 275 337 469 336 232 0 389 -235 426 -637 11
-124 10 -132 -26 -336 -20 -106 -15 -141 25 -184 40 -44 71 -54 117 -39 95 31
135 197 95 392 -11 55 -26 152 -32 215 -13 137 -33 229 -69 319 -101 253 -267
424 -462 476 -68 19 -228 18 -297 -1z"/>
<path d="M11668 13779 c-16 -9 -18 -32 -18 -247 0 -378 -23 -884 -40 -913 -6
-9 -34 12 -97 70 -116 108 -204 154 -301 155 -80 0 -118 -13 -190 -67 -211
-159 -398 -824 -341 -1210 37 -250 167 -418 362 -466 55 -13 168 -16 212 -5
87 21 217 112 306 216 l53 61 8 -29 c4 -16 11 -72 15 -123 6 -93 7 -96 46
-138 24 -26 55 -48 79 -55 34 -10 42 -9 66 9 15 12 25 27 24 35 -2 7 -12 45
-22 84 -48 184 -54 445 -26 1119 31 745 36 832 67 1032 32 212 37 339 15 381
-16 31 -61 74 -93 91 -27 14 -102 14 -125 0z m-273 -1163 c92 -42 166 -151
200 -293 14 -60 17 -102 12 -235 -12 -406 -150 -754 -331 -843 -70 -34 -163
-37 -223 -7 -196 100 -233 495 -92 980 67 234 158 379 259 415 40 14 127 6
175 -17z"/>
<path d="M9300 12808 c-18 -13 -42 -35 -54 -51 -20 -27 -20 -28 -3 -180 13
-122 15 -170 6 -244 -6 -56 -9 -292 -7 -600 l3 -508 24 -49 c19 -38 33 -52 69
-68 53 -24 104 -18 127 15 17 24 16 42 -17 257 -51 334 9 695 159 955 57 99
142 213 190 256 180 158 331 33 407 -334 43 -206 72 -656 62 -948 l-6 -186 59
-27 c69 -31 102 -33 124 -8 15 17 17 61 17 425 0 440 -9 554 -55 740 -76 302
-173 430 -390 519 -203 82 -329 17 -464 -242 -29 -55 -64 -114 -79 -132 l-27
-32 -7 40 c-3 21 -4 116 -1 210 l6 170 -28 22 c-35 28 -73 28 -115 0z"/>
<path d="M13641 12793 c-39 -8 -68 -31 -86 -69 -14 -30 -18 -100 -26 -465 -14
-586 -4 -692 83 -869 90 -185 260 -283 460 -267 85 7 154 40 244 116 l71 60 9
-107 c14 -163 11 -456 -5 -534 -16 -83 -62 -162 -119 -205 -63 -48 -139 -68
-252 -67 -168 2 -252 38 -391 171 -89 86 -100 93 -136 93 -56 0 -90 -29 -98
-84 -18 -118 127 -246 379 -335 190 -67 373 -63 532 13 133 63 235 188 275
336 9 32 14 260 19 810 l7 765 46 260 c45 254 46 261 28 285 -21 29 -100 53
-146 44 -57 -11 -65 -16 -82 -47 -15 -28 -18 -87 -24 -452 -6 -381 -8 -428
-28 -502 -45 -177 -118 -325 -192 -387 -103 -88 -238 -89 -335 -3 -53 46 -87
110 -117 215 -20 72 -21 99 -21 392 1 173 6 376 13 450 11 120 41 303 57 344
3 8 -3 19 -14 25 -24 13 -117 21 -151 14z"/>
<path d="M12510 12776 c-103 -27 -184 -107 -254 -249 -92 -189 -128 -355 -89
-416 10 -17 34 -42 53 -56 63 -46 90 -29 90 58 0 161 131 394 266 473 97 57
231 38 314 -45 76 -76 112 -197 125 -427 5 -84 4 -132 -4 -157 l-12 -35 -242
-4 c-232 -4 -245 -5 -316 -30 -156 -57 -338 -194 -395 -297 -37 -68 -44 -142
-21 -212 36 -108 196 -224 365 -263 85 -20 223 -20 313 0 74 17 214 76 267
114 16 12 34 18 40 15 6 -3 10 -49 10 -103 0 -117 17 -155 76 -171 38 -10 90
-5 112 12 14 11 15 366 3 1012 -7 364 -8 382 -30 435 -12 30 -40 79 -62 108
-132 175 -423 289 -609 238z m392 -997 c112 -28 145 -138 83 -274 -54 -120
-216 -224 -378 -245 -180 -22 -332 58 -351 185 -10 66 15 141 65 198 103 118
388 185 581 136z"/>
<path d="M7925 12768 c-46 -25 -45 -17 -45 -522 0 -503 10 -734 36 -848 28
-120 126 -236 268 -315 45 -25 61 -28 131 -27 135 2 276 64 364 159 l40 43 16
-74 c10 -40 26 -85 36 -98 25 -31 81 -50 125 -42 75 15 85 107 59 522 -17 286
-15 385 20 738 19 192 19 328 1 364 -21 40 -60 57 -131 57 -49 0 -69 -5 -98
-25 -32 -22 -37 -30 -37 -66 0 -22 9 -67 20 -99 18 -53 20 -84 20 -374 0 -353
-9 -446 -59 -603 -35 -107 -87 -195 -150 -251 -56 -51 -102 -69 -174 -70 -48
0 -65 5 -100 29 -46 32 -96 108 -127 192 -42 112 -45 164 -32 614 7 233 12
473 12 535 0 105 -1 113 -26 142 -24 29 -31 31 -87 31 -34 0 -71 -6 -82 -12z"/>
<path d="M7582 8734 c-65 -17 -101 -35 -177 -89 -149 -105 -274 -302 -331
-520 -23 -86 -27 -121 -27 -245 0 -161 17 -250 73 -368 98 -210 229 -330 800
-737 224 -160 318 -247 356 -330 62 -134 -16 -248 -197 -289 -99 -22 -242 -29
-369 -17 -219 21 -296 52 -430 175 -106 98 -170 136 -229 136 -53 0 -81 -25
-88 -77 -7 -55 33 -140 85 -181 132 -105 417 -200 664 -221 294 -25 616 64
750 207 65 69 81 105 86 195 4 72 2 82 -28 144 -39 78 -149 198 -260 283 -41
31 -208 153 -370 270 -162 117 -317 233 -344 259 -123 117 -227 283 -261 416
-34 133 -12 322 51 448 110 219 275 337 469 336 232 0 389 -235 426 -637 11
-124 10 -132 -26 -336 -20 -106 -15 -141 25 -184 40 -44 71 -54 117 -39 95 31
135 197 95 392 -11 55 -26 152 -32 215 -13 137 -33 229 -69 319 -101 253 -267
424 -462 476 -68 19 -228 18 -297 -1z"/>
<path d="M13605 8734 c-58 -30 -59 -32 -45 -140 9 -74 11 -359 8 -1154 -3
-1120 -3 -1138 44 -1299 36 -123 98 -167 177 -126 47 24 53 71 22 170 -23 72
-47 253 -61 455 -13 190 -13 1152 0 1395 12 219 31 368 61 472 36 130 28 170
-45 217 -47 30 -114 35 -161 10z"/>
<path d="M11680 8337 c-30 -15 -60 -71 -60 -111 0 -113 150 -216 253 -173 79
33 92 162 24 235 -52 56 -156 79 -217 49z"/>
<path d="M10592 7774 c-119 -59 -221 -218 -307 -477 -167 -505 -150 -906 50
-1134 95 -108 210 -161 370 -170 83 -5 115 -2 190 17 136 34 193 68 326 200
166 164 197 235 144 326 -50 85 -97 77 -139 -25 -80 -188 -339 -391 -501 -391
-99 0 -204 68 -258 167 -108 199 -100 567 20 931 86 264 214 412 353 412 140
0 206 -166 198 -495 -4 -143 -7 -164 -26 -195 -12 -19 -22 -43 -22 -52 0 -25
34 -53 80 -67 103 -31 148 64 157 328 6 174 -7 301 -39 369 -27 58 -123 136
-245 199 -170 89 -259 103 -351 57z"/>
<path d="M9233 7750 c-205 -73 -383 -354 -465 -735 -18 -81 -22 -134 -22 -285
0 -116 4 -207 12 -245 79 -362 263 -534 574 -536 153 -1 259 38 362 132 106
97 196 258 242 434 36 134 45 389 20 545 -51 323 -204 543 -470 676 -58 29
-79 34 -135 33 -37 0 -89 -9 -118 -19z m304 -214 c86 -44 166 -171 207 -327
116 -450 -1 -959 -249 -1079 -91 -44 -217 -45 -302 -1 -240 122 -317 650 -158
1077 68 181 162 295 279 336 62 23 175 20 223 -6z"/>
<path d="M12550 7706 c-103 -27 -184 -107 -254 -249 -92 -189 -128 -355 -89
-416 10 -17 34 -42 53 -56 63 -46 90 -29 90 58 0 161 131 394 266 473 97 57
231 38 314 -45 76 -76 112 -197 125 -427 5 -84 4 -132 -4 -157 l-12 -35 -242
-4 c-232 -4 -245 -5 -316 -30 -156 -57 -338 -194 -395 -297 -37 -68 -44 -142
-21 -212 36 -108 196 -224 365 -263 85 -20 223 -20 313 0 74 17 214 76 267
114 16 12 34 18 40 15 6 -3 10 -49 10 -103 0 -117 17 -155 76 -171 38 -10 90
-5 112 12 14 11 15 366 3 1012 -7 364 -8 382 -30 435 -12 30 -40 79 -62 108
-132 175 -423 289 -609 238z m392 -997 c112 -28 145 -138 83 -274 -54 -120
-216 -224 -378 -245 -180 -22 -332 58 -351 185 -10 66 15 141 65 198 103 118
388 185 581 136z"/>
<path d="M11643 7668 l-33 -11 0 -745 c0 -723 1 -747 20 -787 24 -50 65 -75
133 -82 74 -8 82 4 62 96 -12 58 -15 168 -15 589 -1 508 0 519 24 637 37 186
40 222 22 249 -17 27 -112 67 -154 65 -15 -1 -42 -6 -59 -11z"/>
</g>
</svg>
